<svg xmlns="http://www.w3.org/2000/svg" width="1046" height="63.91" viewBox="0 0 1046 63.91">
    <path fill="currentColor"
          d="M470.522,1416.38c7.073-1.86,2.3-5.2,8.808-6.56,4.268,0.31,1.7,5.17,12.066,2.35,9.586-2.58,22.014-.47,31.922,1.55,6.444,1.32,5.032-.51,6.03-1.24,7.212-5.28,18.188-4.16,26.016-.5,7.55,3.54,12.107,3.46,19.376.88,2.276-.82,5.979-1.94,8.461-1.74,28.32,2.12,56.815-2.23,85.126,2.56,15.77,2.58,32.723,2.13,49.464,2.52,9.833,0.2,25.235-.81,23.9,5.91,7.339-4.18,18.032-4.21,29.516-3.26,38.953,3.11,79.587,2.1,117.618,5.78,21.227,1.89,47.579,1.1,64.07,5.95a49.916,49.916,0,0,0,9.479.54c11.655-2.3,24.148.08,36.191,0.91,9.073,0.66,17.893,1.15,27.033,1.07,6.93-.07,13.95.12,20.41,1.92-38.18-.5-73.414,1.36-112.332.02-9.271-.36-16.486,1.97-26.471,1.25-32.9-2.59-65.183,1.75-99-.96-16.547-1.46-33.725,2.56-51.72,3.49-24.091,1.14-46.164,3.14-72.672,1.4-16.024-1.07-42.305.41-59.746,5.51-2.221.65-4.9,1.68-6.536,0.73-8.57-5-22.651-2.27-33.733-1.81-26.421,1.09-49.6-3.38-75.379-3.69-12.8-.12-25.911-1.17-36.541,1.7-17.034,4.69-41.021,4.29-56.9,15.77,6.155-11.44-7.911-9.65-19.376-9.4-9.663.2-19.937,1.39-26.323-3.04a18.656,18.656,0,0,0-4.651-1.4c-13.958,7.92-36.753,1.85-51.614,6.88-14.8,5.14-26.733,1.97-38.077-.87-7.268-1.8-14.834-3.5-21.426-2.08-22.991,4.99-45.027,1.1-67.454,1.23-14.689.14-29.962-1.37-44.629,0.18-42.416,4.63-83.946-1.88-125.509-.23-2.23-4.46,6.356-6.14,3.5-9.91-12.2-.15-17.766,8.64-27.6,8.53-13.82-.18-19.931,2.79-22.311,14.62-6.325-13.49-15.479-14.13-26.882-8.2-2.731,1.42-3.826,1.61-5.821-.51-10.211-10.93-12.066-1.44-16.913,3.26-6.069-9.14-12.034-16-32.667-11.62-11.8,2.54-27.711-.33-40.979-2.75-25.823-4.76-52.144,1.27-77.224-3.02-29.144-5.12-58.5-2.41-87.97-6.87-52.374-8.08-105.9-12.37-158.978-19.4-4.784-.64-9.547-1.42-14.735-5.04,17.357-.59,34.681-1.42,52.075-1.75,52.475-1.01,104.889-3,157.489-2.7,31.309,0.13,63.467-.36,94.126,8.16,1.809,0.51,4.886,1.81,4.851.37-0.273-11.73,12.439-4.59,17.99-4.05,26.193,2.59,48.444-4.33,71.845-8.28,1.89-.32,3.8-1.74,5.289-1.49,21.543,3.54,43.549-2.68,64.848,3.15,14.062,3.73,30.383-4.67,43.36,4,13.534-10.52,32.071,3.27,41.877-.46,17.258-6.37,34.926-3.21,52.319-4.07,15.9-.7,32.374,5.81,48.118.4,21.743,8.77,47.357-5.02,69.382,4.49,3.867,1.63,10.967,1.14,16.058-.34,9.291-2.71,17.646-1.27,27.569.58A136.911,136.911,0,0,0,329,1405.51c16.035-3.53,31.07-3.22,50.554-1.83,25.363,1.96,48.176,11.86,76.882,5.84C467.9,1407.2,467.843,1413.35,470.522,1416.38Z"
          transform="translate(0 -1399.03)"/>
</svg>
