<svg id="Layer" xmlns="http://www.w3.org/2000/svg" viewBox="0 0 206.33 238.02">
  <defs>
    <style>
      .cls-1 {
        fill: #1f170a;
        stroke: #5f4d25;
        stroke-miterlimit: 10;
        stroke-width: 16px;
      }

      .cls-2 {
        fill: #c7a64f;
      }
    </style>
  </defs>
  <title>favicon</title>
  <circle class="cls-1" cx="103.17" cy="119.21" r="95.17"/>
  <path id="Logo" class="cls-2" d="M204.83,129c-1.05,0-2.11,0-3.16,0h-1.58c-.53,0-1.05,0-1.58,0l-3.16,0H193l-.79,0-6.31.08-6.31.12c-2.41.05,1.19.12-6.85.19a5,5,0,0,0,.38,1.41c-2.61,3-1.54,6.81-1.49,10.17,0,2.8-1.57,5.48-1,7.88a9.46,9.46,0,0,1-.56,5.23c-2,6.26-4.22,12.2-5.83,18.79a90.71,90.71,0,0,1-3.63,10.81c-1.89,4.85-4,9.59-6.32,14.3-2.66,5.51-5.55,10.95-8.73,16.26l-.34-.25c1.17-2.47,2.29-5,3.28-7.46,3.36-8.58,7.07-17.22,8.69-26,.34-1.87.09-3.57.83-5.62a43.25,43.25,0,0,0,2.59-12.61c.16-4.24,1-8.22,1.39-12.21s-.82-7.37.35-11.53c.8-2.81.46-6.1,1.43-9l-20.43.2c-.39,2.49-.54,5,1,7.49-1.73-.5-1.6,1.23-1.46,2.21.2,1.4-.34,3,.23,4.23-1.58,1.84-1,4.1-1,6.11,0,1.68-1,3.3-.64,4.74a5.73,5.73,0,0,1-.36,3.14c-1.22,3.77-2.6,7.35-3.6,11.31a55.84,55.84,0,0,1-2.24,6.51c-1.16,2.92-2.48,5.78-3.87,8.62-1.63,3.32-3.39,6.6-5.32,9.81l-.2-.15c.71-1.49,1.4-3,2-4.5,2.06-5.17,4.33-10.37,5.35-15.68a17.37,17.37,0,0,1,.53-3.38,26.33,26.33,0,0,0,1.63-7.58c.12-2.55.67-4.94.9-7.34s-.45-4.42.28-6.92c.57-1.95.24-4.27,1.23-6.23-1,.15-1.66,0-1.36-1.74a16.53,16.53,0,0,0,0-2.54c.11-2.69-.79-5.35-.09-8-7.91.09-21.73,0-23.9,0s-3.94,0-5.78,0A15.68,15.68,0,0,0,107,132a6.65,6.65,0,0,1-.23,4.31,3.75,3.75,0,0,0-.33,2.52c1.43,3.27-1.74,7.5-.76,10.75-1.39,2.49-.78,5-1.49,7.44-.76,2.67-1,5.39-2.71,8-1,1.44.21,4.37-2,6.28.58,2-1.46,4.37-1.74,6.49-.45,3.24-2.61,6.34-3.61,9.51-.07.22-.37.46-.53.73-2.06,3.27-4.36,6.22-6.07,9.91-.36.78-.65,2.74-1.8,2.35-.14,0-.25.41-.34.67-1.59,4.44-4.5,8.72-7.43,12.77A147.36,147.36,0,0,1,61.19,232.8c-2,2-4.15,3.88-6.32,5.75a12.56,12.56,0,0,1,1.56-1.81,120,120,0,0,0,15.91-19.51c2.43-3.84,5.22-7.54,7.11-11.54,1.6-3.43,4.14-6.79,5.41-10.46a29.16,29.16,0,0,1,2.33-5.71c1.75-2.76,1.28-3.77.51-4.81.81-.57,2.09-.64,1.28-2.3-.16-.32-.08-.47.23-.83,1.31-1.49,1.7-2.81.22-3.93,1.64-.13,2.34-1,2.93-2.93.41-1.41,1.86-2.09,2.36-3.87-.42-.46-1,.77-1.54.39,1.92-6,2.1-12,3.68-18.26a41.54,41.54,0,0,0,.74-6.56c.32-3.32-.32-6.46.72-10a4.88,4.88,0,0,0-.43-3.09A8.89,8.89,0,0,1,97,129.9l-16.09.23a7.82,7.82,0,0,0,.86,3.92c.2.39.36.81-.46.7-.48-.06-.75.64-.64.92.8,1.95-.65,3.66-.39,5.56.37,2.81-.33,5.56-.61,8.33-.37,3.73-1,7.41-1.46,11.12,0,.35-.15.68-.22,1-.75-.08-.56-.65-.59-1a86.22,86.22,0,0,0-1.34-10.34,52.76,52.76,0,0,1-.53-7.55c-.1-1.53,1.12-3.21.51-4.25-1-1.73-.72-3.33-.43-4.87a9,9,0,0,0,0-3.51L62,130.4c-3.51,0-7,.1-10.52.14l-10.53.12c-7,.08-14,.17-21.05.18q10.5-.8,21-1.48t21-1.24l12.86-.66c-.38-1.61.48-3.06.68-4.58a4.22,4.22,0,0,0-1.06-3.72c-.68-.68-.76-1.08-.31-1.78,2-3.07,1.54-6.43,1-9.8-.1-.67.1-1.78,0-1.95-.64-1.85.9-3.91-.66-5.59,0,0-.07-.12-.05-.15,1.32-2.43-.73-5.31.85-7.67.59-.89-.3-2.19.06-2.39,2.32-1.31.85-3.38.65-4.74-.68-4.5,1.82-8.34,1.56-12.67l.58,0c.37,2.43.31,5,1.19,7.25,1.56,3.92.8,7.91,1.24,11.85.42,3.77,0,7.59.79,11.34.16.75-.34,1.37-.58,2-.44,1.22-.53,2.39,1.07,2.88.88.27.62.92.44,1.39-.73,1.94-.54,4-.68,6-.05.79.68,2.31-1.18,2.22a5.87,5.87,0,0,0,.22,1.25,15.18,15.18,0,0,1,.7,8.48l1.59-.08,10.52-.47,4.36-.19c.19-2.12-.69-4.52.64-6.54a1.73,1.73,0,0,0-.4-.61c-1.15-.68-1.07-2.24-1.22-3.67-.18-1.69-.08-3.85-2.81-2.15,2.48-3.08,1.75-6.56,2.47-9.44.46-1.81-.24-3.64-.74-5.48-1-3.73-3.34-6.48-4.3-10.31-.4-1.61-.21-4-2.33-4.42-.41-.08-.21-.6-.12-1a13,13,0,0,0-1.55-9.22c-2.27-3.3-3-6.69-4.23-10.27-.9-2.65-.41-6.15-2.26-8-3.77-3.71-4.29-9.61-8.32-13.09-1.22-1-.61-3-1.58-4.14-4.1-4.64-6.18-10.42-9.81-15.78A2.63,2.63,0,0,1,64.27,24a10.85,10.85,0,0,0,3,3.35c1.55,1.26,3.94,1.9,3.57,4.78,0,.27.74,1.1,1.08,1.11,4.05.07,5.59,4.46,8.11,6.85C84.56,44.45,86.79,51,90.44,56a4.41,4.41,0,0,1,.41,5.29c2.61-1.83,3,.8,3.64,2.26,1,2.51,1.71,5.19,3.36,7.15,3,3.57,2.57,8.81,4.26,12.91a2.82,2.82,0,0,1-.26,1.57c-.57,1.49-.42,2.19.9,2.92s2,2.4.61,4.14c-.19.24-.77.23-.2,1.09.87,1.32,1.75,3.07,1.24,4.83s.74,1,.91,1.67c-.24,1.15-1.26.71-1.62,2,.88.14,2.55-.42,2.12,1.6-1.09,5,1.73,7.82,2.26,11.78a17.72,17.72,0,0,1-.41,8.13A20.79,20.79,0,0,0,107,126c3.33-.13,6-.28,6.84-.28,3.69,0,14.17-.5,21.86-.54-.4-1.15,0-2.85-1.27-3.14.47-1.84-.75-3.13-1.24-4.65-.27-.87-1.4-1.53-.63-2.68-1-.55.7-3-1.93-2.43A3.34,3.34,0,0,0,132,109a16.89,16.89,0,0,0-1.28-4.36c-1.13-2.75-1.92-5.69-2.92-8.55a9.16,9.16,0,0,0-.69-2.4,17.22,17.22,0,0,1-2.83-5.88c-.31-1.33-.41-2.88-1.16-4-2.59-3.65-4.27-7.68-6.39-11.62-1.16-2.15-2.32-4.32-3.59-6.47C118.61,69,121.85,74.5,126,78.94c1.24,1.34,1.62,3.28,3,4.6,1.93,1.84,1.28,5.07,3.29,7,1.1,1.1.61,3.06,1.72,4.32a12.25,12.25,0,0,1,2.5,5.36c.64,2.66,1.69,5.23,2.21,8a5.89,5.89,0,0,0,1.59,3.69c1,.95,1.82,2.68,3.21,4.13-2.12-.29-2.63.57-1.51,2.55.31.56-.1.6-.11.83,0,1.37-.16,2.76.7,3.88a5,5,0,0,1,.9,1.92q9.24,0,18.48,0a30.18,30.18,0,0,0-.11-4.14c.15-4.76-1.64-9.49-.07-14.26.55-1.63,1.09-4.83,0-5.23-3.08-1.13-.7-6.15-3.67-6.82.75-3.06-1.3-5.23-2.15-7.77-.47-1.45-2.36-2.57-1.1-4.47-1.61-.93,1.12-5-3.27-4.07,2-1.74,2.53-3.24,2.2-5.6a28.55,28.55,0,0,0-2.21-7.29c-1.94-4.6-3.3-9.52-5-14.29-.47-1.29-.35-2.8-1.19-4a29.36,29.36,0,0,1-4.82-9.84c-.54-2.23-.73-4.8-2-6.6-4.38-6.12-7.26-12.87-10.87-19.47-2-3.6-3.95-7.24-6.1-10.83,9.27,5.6,14.76,14.75,21.79,22.23,2.09,2.26,2.75,5.48,5.15,7.72,3.25,3.1,2.23,8.47,5.61,11.76,1.86,1.85,1.07,5.1,2.95,7.23a20.89,20.89,0,0,1,4.26,9c1.11,4.43,2.9,8.74,3.83,13.28.46,2.26.66,4.14,2.72,6.17,1.61,1.59,3.09,4.49,5.43,6.93-3.55-.52-4.38.9-2.48,4.22.52.93-.16,1-.17,1.37-.05,2.28-.23,4.6,1.23,6.48,1.93,2.5,2.12,5.41,1.55,9-.77,4.7-1.49,9.56,1.54,14.29-2.89-.86-2.65,2-2.4,3.66a9.19,9.19,0,0,1,.09,1.48c8,.07,4.42.18,6.83.32l.79,0,.79.06,1.58.12,3.16.26c2.11.18,4.21.45,6.31.69l.79.1.79.11,1.58.23,3.16.5c.53.08,1.05.18,1.58.29l1.58.31C202.72,128.52,203.78,128.73,204.83,129Z" transform="translate(-16.57 -0.52)"/>
</svg>
