<svg xmlns="http://www.w3.org/2000/svg" width="71.375" height="71.37" viewBox="0 0 71.375 71.37">
  <metadata><?xpacket begin="﻿" id="W5M0MpCehiHzreSzNTczkc9d"?>
<x:xmpmeta xmlns:x="adobe:ns:meta/" x:xmptk="Adobe XMP Core 5.6-c138 79.159824, 2016/09/14-01:09:01        ">
   <rdf:RDF xmlns:rdf="http://www.w3.org/1999/02/22-rdf-syntax-ns#">
      <rdf:Description rdf:about=""/>
   </rdf:RDF>
</x:xmpmeta>
                                                                                                    
                                                                                                    
                                                                                                    
                                                                                                    
                                                                                                    
                                                                                                    
                                                                                                    
                                                                                                    
                                                                                                    
                                                                                                    
                                                                                                    
                                                                                                    
                                                                                                    
                                                                                                    
                                                                                                    
                                                                                                    
                                                                                                    
                                                                                                    
                                                                                                    
                                                                                                    
                           
<?xpacket end="w"?></metadata>
<defs>
    <style>
      .cls-1 {
        fill: #fff;
        fill-rule: evenodd;
      }
    </style>
  </defs>
  <path id="Form_2" data-name="Form 2" class="cls-1" d="M470.337,1147.27a18.34,18.34,0,1,1,18.337-18.34A18.361,18.361,0,0,1,470.337,1147.27Zm0-30.57a12.23,12.23,0,1,0,12.232,12.23A12.241,12.241,0,0,0,470.337,1116.7Zm17.056,47.92H453.281a18.654,18.654,0,0,1-18.633-18.63v-34.12a18.654,18.654,0,0,1,18.633-18.63h34.112a18.654,18.654,0,0,1,18.632,18.63v34.12A18.654,18.654,0,0,1,487.393,1164.62Zm-34.112-65.27a12.54,12.54,0,0,0-12.528,12.52v34.12a12.54,12.54,0,0,0,12.528,12.52h34.112a12.54,12.54,0,0,0,12.528-12.52v-34.12a12.54,12.54,0,0,0-12.528-12.52H453.281Zm40.121,10.42a4.216,4.216,0,1,1-4.216-4.22A4.21,4.21,0,0,1,493.4,1109.77Z" transform="translate(-434.656 -1093.25)"/>
</svg>
